<?xml version="1.0" encoding="UTF-8" standalone="no"?>
<!-- Created with Inkscape (http://www.inkscape.org/) -->

<svg
   xmlns:dc="http://purl.org/dc/elements/1.1/"
   xmlns:cc="http://creativecommons.org/ns#"
   xmlns:rdf="http://www.w3.org/1999/02/22-rdf-syntax-ns#"
   xmlns:svg="http://www.w3.org/2000/svg"
   xmlns="http://www.w3.org/2000/svg"
   xmlns:sodipodi="http://sodipodi.sourceforge.net/DTD/sodipodi-0.dtd"
   xmlns:inkscape="http://www.inkscape.org/namespaces/inkscape"
   height="140.50217mm"
   width="79.900047mm"
   viewBox="0 0 283.1104 497.84233"
   id="svg2"
   version="1.1"
   inkscape:version="0.91 r13725"
   sodipodi:docname="silhouette-director.svg"
   inkscape:export-filename="/home/algot/Documents/runeman.org/clipart/silhouette-director-f.png"
   inkscape:export-xdpi="197.08029"
   inkscape:export-ydpi="197.08029">
  <title
     id="title3210">Director in Chair</title>
  <defs
     id="defs8" />
  <sodipodi:namedview
     pagecolor="#ffffff"
     bordercolor="#666666"
     borderopacity="1"
     objecttolerance="10"
     gridtolerance="10"
     guidetolerance="10"
     inkscape:pageopacity="0"
     inkscape:pageshadow="2"
     inkscape:window-width="1366"
     inkscape:window-height="712"
     id="namedview6"
     showgrid="false"
     inkscape:zoom="0.5"
     inkscape:cx="-107.83181"
     inkscape:cy="113.01839"
     inkscape:window-x="0"
     inkscape:window-y="0"
     inkscape:window-maximized="1"
     inkscape:current-layer="svg2"
     fit-margin-top="0"
     fit-margin-left="0"
     fit-margin-right="0"
     fit-margin-bottom="0" />
  <metadata
     id="metadata4">
    <rdf:RDF>
      <cc:Work
         rdf:about="">
        <dc:format>image/svg+xml</dc:format>
        <dc:type
           rdf:resource="http://purl.org/dc/dcmitype/StillImage" />
        <dc:title>Director in Chair</dc:title>
        <dc:date>2017-02-21</dc:date>
        <dc:creator>
          <cc:Agent>
            <dc:title>Algot Runeman</dc:title>
          </cc:Agent>
        </dc:creator>
        <dc:rights>
          <cc:Agent>
            <dc:title>Algot Runeman</dc:title>
          </cc:Agent>
        </dc:rights>
        <dc:publisher>
          <cc:Agent>
            <dc:title>runeman.org</dc:title>
          </cc:Agent>
        </dc:publisher>
        <dc:identifier>silhouette-director</dc:identifier>
        <cc:license
           rdf:resource="http://creativecommons.org/publicdomain/zero/1.0/" />
      </cc:Work>
      <cc:License
         rdf:about="http://creativecommons.org/publicdomain/zero/1.0/">
        <cc:permits
           rdf:resource="http://creativecommons.org/ns#Reproduction" />
        <cc:permits
           rdf:resource="http://creativecommons.org/ns#Distribution" />
        <cc:permits
           rdf:resource="http://creativecommons.org/ns#DerivativeWorks" />
      </cc:License>
    </rdf:RDF>
  </metadata>
  <rect
     style="opacity:1;fill:#ffffff;fill-opacity:1;stroke:#000000;stroke-width:2;stroke-linecap:round;stroke-linejoin:bevel;stroke-miterlimit:4;stroke-dasharray:none;stroke-dashoffset:0;stroke-opacity:1"
     id="rect3212"
     width="340"
     height="546"
     x="-20"
     y="-22.157684" />
  <path
     style="fill:#000000;fill-rule:evenodd;stroke:#000000;stroke-width:1px;stroke-linecap:butt;stroke-linejoin:miter;stroke-opacity:1"
     d="m 140.77044,190.13595 c 0,0 -4.23489,-12.00881 -2.8624,-17.88995 2.06069,-8.83011 15.74316,-22.18354 15.74316,-22.18354 l 6.44038,-11.44956 -7.15598,-8.58718 c 0,0 -17.0185,3.02148 -25.04593,0.7156 -1.65323,-0.47489 -3.48195,-1.34584 -4.29359,-2.86239 -1.91341,-3.57524 0,-12.16517 0,-12.16517 l -2.14679,-3.57799 -20.03674,-7.15598 c 0,0 -2.658678,-0.53403 -3.577988,-1.43119 -1.30011,-1.26878 -2.1468,-5.009191 -2.1468,-5.009191 l -24.33033,-25.045926 -7.15598,-12.88076 -7.15598,-7.87158 -5.00918,-10.73397 0,-7.87158 -2.1468,-7.87158 c 0,0 1.21183,-1.75951 2.1468,-2.14679 0.8815,-0.36513 2.86239,0 2.86239,0 0,0 0.80998,-3.77915 2.14679,-5.00919 1.11016,-1.0215 4.29359,-1.43119 4.29359,-1.43119 0,0 1.34213,-5.47015 3.57799,-5.72479 1.00551,-0.11451 2.14679,2.1468 2.14679,2.1468 l 4.29359,10.73397 0.7156,-10.73397 0,-10.7339704 c 0,0 1.51644,-2.95804001 2.86239,-2.86239001 1.18966,0.0845 2.1468,2.86239001 2.1468,2.86239001 l 1.43119,12.1651604 0.7156,15.02756 1.4312,17.17435 8.58717,6.44038 0.7156,2.8624 3.57799,-2.1468 7.155978,4.29359 7.87158,0.7156 5.00918,0 1.4312,-3.57799 -1.4312,-2.86239 1.4312,-1.4312 -2.1468,-2.14679 1.4312,-2.1468 -2.14679,-2.86239 1.43119,-2.86239 4.29359,-2.86239 0.7156,-16.45876 c 0,0 1.52499,-3.04149 2.86239,-2.86239 1.9061,0.25526 0.7156,-4.29359 2.86239,5.00919 2.1468,9.30277 1.4312,12.16516 1.4312,12.16516 0,0 2.6173,0.39299 2.86239,1.4312 0.27402,1.16076 -2.14679,2.86239 -2.14679,2.86239 0,0 4.18165,2.27267 4.29358,4.29359 0.0845,1.52502 -2.86239,3.57799 -2.86239,3.57799 0,0 3.43643,1.37109 4.29359,2.86239 3.92978,6.83711 1.4312,23.61473 1.4312,23.61473 l 5.00918,6.44039 6.44038,1.43119 c 0,0 2.39912,-1.01495 3.57799,-0.7156 1.8057,0.45851 4.29359,3.57799 4.29359,3.57799 l 7.15598,0 c 0,0 -0.20817,-4.43642 1.4312,-5.00918 1.93711,-0.67679 5.00918,3.57799 5.00918,3.57799 l 7.87158,-1.4312 c 0,0 0.2659,-3.03752 1.4312,-3.57799 2.05287,-0.95212 6.44038,2.1468 6.44038,2.1468 l 15.02756,-0.7156 10.01837,7.155976 5.00918,-1.431196 0,-2.86239 -5.00918,-2.86239 -0.7156,-7.87158 -3.57799,-10.73397 0.7156,-7.15598 -3.57799,-2.14679 -4.29359,-5.00919 0,-3.57799 7.87158,-3.57799 -2.86239,-5.72478 c 0,0 -3.83234,-7.88977 -4.29359,-12.16517 -0.20628,-1.91202 -0.0714,-3.97006 0.7156,-5.72478 1.03762,-2.31361 2.85965,-4.37981 5.00918,-5.72479 2.30556,-1.44261 5.15573,-2.0022504 7.87158,-2.1467904 7.47949,-0.39805 14.93442,1.6934204 22.18354,3.5779904 5.40426,1.40496 10.88255,2.97623 15.74315,5.72478 5.60998,3.1723 10.68601,7.40215 15.02756,12.16517 3.47621,3.81368 8.58718,12.88076 8.58718,12.88076 l 0,3.57799 -7.15598,3.57799 -6.44039,0 -7.87157,19.32115 0,12.16516 c 0,0 7.42185,0.83932 9.30277,3.57799 1.48546,2.162876 0,7.871576 0,7.871576 l 4.29359,5.00919 5.72478,12.880761 8.58718,14.31196 -2.1468,10.01837 -20.03674,50.80746 -3.57799,7.15598 z"
     id="path3151"
     inkscape:connector-curvature="0"
     sodipodi:nodetypes="cscccsscccscccccccscscsccccscccccccccccccccccccsscscscscccsccsccsccccccccccccccsssssssccccccscccccccc" />
  <path
     style="opacity:1;fill:#000000;fill-rule:evenodd;stroke:#000000;stroke-width:1px;stroke-linecap:butt;stroke-linejoin:miter;stroke-opacity:1"
     d="m 276.73418,130.0256 -15.74414,60.82618 -0.30665,2.14648 1.02344,0 -1.43164,9.30273 -5.72461,-0.71484 -0.0527,-0.63086 -79.37891,1.3457 -2.14648,5.00977 11.44922,0.71484 -1.43164,41.50586 -5.72461,0 -25.76105,27.19114 11.4505,12.16629 -13.59766,20.0371 -37.21093,41.50391 -56.531248,32.91797 41.5039,15.74219 -40.78906,70.1289 5.72461,5.72461 25.76172,-37.21094 65.119138,-7.15624 25.76172,62.97265 4.29297,3.57813 5.00976,-6.43946 -16.45898,-39.35937 80.14648,-8.58594 24.33203,41.50391 6.43946,-5.00782 -67.26563,-115.92773 39.35742,-93.02734 10.73438,0 7.87109,-12.88086 -2.14648,-10.73438 -10.01953,-1.43164 7.87304,-35.7793 13.59571,-76.56835 z m -20.03711,75.85352 4.29297,2.14648 -6.43946,37.21094 -20.03711,0 -43.65039,4.29297 -0.71679,-40.78711 65.83593,3.57617 z m -13.59571,65.83594 -17.17382,35.77929 -40.78907,-2.14648 -10.73437,-16.45898 22.18164,-15.02735 z m -74.42187,28.62304 35.06445,65.11914 -27.19336,56.53321 -13.5957,1.42968 -7.15625,-17.88867 5.00781,-10.01953 -8.58594,-1.42969 -2.86328,-19.32226 -12.16406,-20.03711 z m 19.32031,11.44922 33.63281,4.29297 -11.44922,31.48633 z m 21.46875,65.11914 37.21094,58.67969 -68.69727,7.87109 z m -117.359368,4.29493 13.597648,1.42968 -1.43164,7.15625 -15.027338,-3.57812 z m 47.945308,25.04492 3.57812,0 7.8711,18.60547 -14.31055,1.43164 z m -44.367188,15.02734 -1.43164,12.16602 -3.57617,-2.86328 z m 77.285158,8.58789 -5.00977,10.01758 -3.57812,-9.30273 z"
     id="path3157"
     inkscape:connector-curvature="0"
     sodipodi:nodetypes="cccccccccccccccccccccccccccccccccccccccccccccccccccccccccccccccccccccccccccccccccccccccc" />
  <path
     style="fill:#000000;fill-rule:evenodd;stroke:#000000;stroke-width:1px;stroke-linecap:butt;stroke-linejoin:miter;stroke-opacity:1"
     d="m 140.77044,188.70476 -25.76153,20.75234 -1.4312,2.86239 -22.899128,-5.00919 -65.11942,-2.86239 -9.30277,2.1468 c 0,0 -11.5157297,4.91032 -14.3119597,10.01837 -2.75129,5.02597 -0.7156,17.17435 -0.7156,17.17435 l 3.57799,15.02756 29.3395197,52.95425 0.71559,7.15598 13.59637,24.33033 c 0,0 -2.07421,12.237 2.14679,15.02756 6.17799,4.08435 21.46794,-5.72479 21.46794,-5.72479 l -3.57799,15.74316 -10.73397,0.7156 -4.29359,5.72478 6.44038,0 -4.29358,7.15598 -3.57799,10.01837 c 0,0 -9.33972,4.82105 -13.59637,7.87158 -2.06102,1.47703 -4.67701,2.70015 -5.72478,5.00918 -1.77418,3.90988 -3.03603,9.84474 0,12.88077 4.55404,4.55404 13.05305,1.4797 19.32115,0 8.30571,-1.96071 22.89913,-11.44957 22.89913,-11.44957 l 17.17435,-15.02756 7.15598,0.7156 7.871578,-0.7156 -4.29359,15.74316 -5.724778,17.88995 -1.4312,15.02756 c 0,0 -4.75463,9.75572 -5.72478,15.02755 -0.99294,5.39565 -2.88429,11.79187 0,16.45876 1.96288,3.17601 6.32365,4.47159 10.01837,5.00918 4.074808,0.59289 8.547368,-0.1803 12.165168,-2.14679 8.30398,-4.5137 19.32114,-20.75234 19.32114,-20.75234 l 5.72479,-17.88995 2.86239,-20.75234 5.00918,0 4.29359,-13.59637 0,-14.31196 -7.87158,-8.58717 -6.44038,-10.73397 13.59636,-45.79827 0,-20.75234 4.29359,-5.72479 -2.14679,-9.30277 27.90832,-25.76153 55.10104,-4.29359 -4.29358,-7.15598 c 0,0 8.7424,-2.26762 12.16516,-5.00918 6.81762,-5.46078 15.02756,-21.46794 15.02756,-21.46794 l -4.29359,-19.32115 z"
     id="path3153"
     inkscape:connector-curvature="0"
     sodipodi:nodetypes="ccccccscccccscccccccsssscccccccsssscccccccccccccccsccc" />
  <path
     style="fill:#000000;fill-rule:evenodd;stroke:#000000;stroke-width:1px;stroke-linecap:butt;stroke-linejoin:miter;stroke-opacity:1"
     d="m 82.807002,208.0259 -2.14679,-4.29359 -14.31196,0 c 0,0 0.744,-3.85495 2.14679,-5.00918 2.63727,-2.16999 6.61783,-1.83001 10.01837,-2.1468 18.76885,-1.7485 56.532238,1.4312 56.532238,1.4312 l -7.15598,5.72478 -40.073488,-1.43119 0,8.58717 z"
     id="path3155"
     inkscape:connector-curvature="0"
     sodipodi:nodetypes="cccssccccc" />
  <path
     style="fill:#000000;fill-rule:evenodd;stroke:#000000;stroke-width:1px;stroke-linecap:butt;stroke-linejoin:miter;stroke-opacity:1"
     d="m 183.70631,249.53058 2.1468,-41.50468 -11.44957,-0.7156 c 0,0 0.33638,-4.8593 2.14679,-5.00918 34.36623,-2.84512 85.15616,-0.7156 85.15616,-0.7156 l -1.43119,9.30277 -70.1286,-0.71559 c 0,0 5.00918,42.22028 0.71559,40.78908 -4.29358,-1.4312 -7.15598,-1.4312 -7.15598,-1.4312 z"
     id="path3189"
     inkscape:connector-curvature="0"
     sodipodi:nodetypes="cccscccsc" />
</svg>
